<svg fill="none" xmlns="http://www.w3.org/2000/svg" viewBox="0 0 590 190">
  <path d="M124.374 67.3107l-22.307-4.7563c-3.9673-.8404-6.8153-4.4202-6.8153-8.5715v-35.042c0-2.8067 2.9139-4.6218 5.3503-3.3277l22.718 12c3.26 1.7143 5.301 5.1428 5.301 8.8907V63.798c-.016 2.269-2.058 3.9664-4.247 3.5127z" fill="#03BD64"/>
  <path d="M149.776 72.8234l-12.545-2.5714c-2.881-.5882-4.971-3.1765-4.971-6.1849V36.8235c0-1.9664 2.041-3.2437 3.769-2.353l13.335 6.9412c2.009 1.042 3.276 3.1596 3.276 5.4622v23.5462c0 1.5462-1.383 2.7059-2.864 2.4033z" fill="#EBEBEB"/>
  <path d="M166.567 76.5038l-8.511-1.8488c-1.679-.3697-2.897-1.8823-2.897-3.647V47.613c0-1.5126 1.58-2.4706 2.881-1.7647l7.54 4.0841c2.09 1.126 3.407 3.3613 3.407 5.7815v18.8067c0 1.2773-1.168 2.2521-2.42 1.9832z" fill="#EBEBEB"/>
  <path d="M123.65 112.05l-21.78 3.042c-3.5065.488-6.6344-2.285-6.6344-5.899V73.9999c0-3.3109 2.8974-5.8319 6.1074-5.3109l21.797 3.5798c3.144.5211 5.465 3.2942 5.465 6.5547v27.4285c0 2.924-2.107 5.395-4.955 5.798z" fill="#03BD64"/>
  <path d="M149.331 108.42l-12.363 1.681c-2.486.336-4.708-1.631-4.708-4.202V78.5881c0-2.2353 1.959-3.9328 4.115-3.5799l12.857 2.1177c1.959.3193 3.408 2.0504 3.408 4.084v23.3441c0 1.95-1.416 3.597-3.309 3.866z" fill="#03BD64"/>
  <path d="M166.501 105.999l-7.721 1.177c-1.894.285-3.606-1.21-3.606-3.177V81.1422c0-1.6807 1.498-2.9412 3.112-2.6387l7.786 1.479c1.696.3193 2.931 1.8319 2.931 3.5966v19.4619c-.017 1.479-1.07 2.74-2.502 2.958z" fill="#03BD64"/>
  <path d="M123.798 156.689l-23.229 11.109c-2.4854 1.193-5.3334-.656-5.3334-3.462V129.31c0-4.117 2.9139-7.63 6.8974-8.319l22.126-3.781c2.272-.387 4.346 1.395 4.346 3.764v27.984c0 3.31-1.877 6.319-4.807 7.731z" fill="#03BD64"/>
  <path d="M149.776 143.714l-13.681 6.773c-1.564.773-3.375-.386-3.375-2.151v-28.118c0-2.521 1.762-4.672 4.198-5.109l13.319-2.42c1.251-.235 2.403.756 2.403 2.067v24.303c0 1.966-1.119 3.781-2.864 4.655z" fill="#03BD64"/>
  <path d="M166.846 135.462l-8.56 4.319c-1.433.723-3.112-.336-3.112-1.966v-23.009c0-1.933 1.367-3.58 3.227-3.899l7.869-1.361c1.432-.252 2.733.874 2.733 2.353v20.033c-.017 1.496-.84 2.857-2.157 3.53z" fill="#03BD64"/>
  <path d="M61.1572 67.3107l22.3068-4.7563c3.9674-.8404 6.8154-4.4202 6.8154-8.5715v-35.042c0-2.8067-2.9138-4.6218-5.3503-3.3277l-22.7183 12c-3.2595 1.7143-5.3009 5.1428-5.3009 8.8907V63.798c.0329 2.269 2.0743 3.9664 4.2473 3.5127z" fill="#1482DE"/>
  <path d="M35.757 72.8234l12.5609-2.5714c2.8809-.5882 4.9716-3.1765 4.9716-6.1849V36.8235c0-1.9664-2.0413-3.2437-3.7699-2.353L36.185 41.4117c-2.0084 1.042-3.2761 3.1596-3.2761 5.4622v23.5462c0 1.5462 1.3664 2.7059 2.8481 2.4033z" fill="#EBEBEB"/>
  <path d="M18.9642 76.5038l8.5111-1.8487c1.6792-.3698 2.8974-1.8824 2.8974-3.6471V47.613c0-1.5126-1.5804-2.4706-2.8809-1.7647l-7.5399 4.0672c-2.0907 1.1261-3.4077 3.3614-3.4077 5.7816v18.8067c0 1.2941 1.1853 2.2689 2.42 2z" fill="#1482DE"/>
  <path d="M61.8814 112.05l21.7799 3.042c3.5065.488 6.6344-2.285 6.6344-5.899V73.9999c0-3.3109-2.8974-5.8319-6.1076-5.3109l-21.7799 3.5798c-3.1444.5211-5.4656 3.2942-5.4656 6.5547v27.4285c0 2.924 2.1072 5.395 4.9388 5.798z" fill="#1482DE"/>
  <path d="M36.2179 108.42l12.3634 1.681c2.4858.336 4.7082-1.631 4.7082-4.202V78.5881c0-2.2353-1.959-3.9328-4.1156-3.5799l-12.8572 2.1177c-1.9591.3193-3.4078 2.0504-3.4078 4.084v23.3441c0 1.95 1.4158 3.597 3.309 3.866z" fill="#1482DE"/>
  <path d="M19.0465 105.999l7.7209 1.177c1.8932.285 3.6053-1.21 3.6053-3.177V81.1422c0-1.6807-1.4981-2.9412-3.1114-2.6387l-7.7868 1.479c-1.6956.3193-2.9303 1.8319-2.9303 3.5966v19.4619c0 1.479 1.0701 2.74 2.5023 2.958z" fill="#1482DE"/>
  <path d="M61.7497 156.689l23.2286 11.109c2.4858 1.193 5.3338-.656 5.3338-3.462V129.31c0-4.117-2.9138-7.63-6.8978-8.319l-22.1256-3.781c-2.2718-.387-4.3461 1.395-4.3461 3.764v27.984c0 3.31 1.8768 6.319 4.8071 7.731z" fill="#1482DE"/>
  <path d="M35.7734 143.714l13.6804 6.773c1.5639.773 3.3748-.386 3.3748-2.151v-28.118c0-2.521-1.7615-4.672-4.198-5.109l-13.3181-2.42c-1.2512-.235-2.4036.756-2.4036 2.067v24.303c0 1.966 1.103 3.781 2.8645 4.655z" fill="#EBEBEB"/>
  <path d="M18.7008 135.462l8.5605 4.319c1.4322.723 3.1114-.336 3.1114-1.966v-23.009c0-1.933-1.3664-3.58-3.2266-3.899l-7.8691-1.361c-1.4323-.252-2.7328.874-2.7328 2.353v20.033c0 1.496.8396 2.857 2.1566 3.53z" fill="#EBEBEB"/>
  <path d="M251.547 111.72h-9.219v10.689h-8.165V111.72h-44.087V98.1904l39.494-31.479h12.774v37.4626h9.203v7.546zm-17.384-7.546V74.2576l-1.91-.0336-34.028 27.227.016 2.723h35.922z" fill="#1482DE"/>
  <path d="M320.261 106.151c0 10.823-5.795 16.235-17.368 16.235h-43.741V66.7053h41.864c5.301 0 9.45 1.2605 12.413 3.7815 3.259 2.7059 4.889 6.7227 4.889 12.0336 0 5.5967-2.074 9.1933-6.206 10.7563 2.7.8572 4.741 2.521 6.14 4.9916 1.334 2.2187 2.009 4.8567 2.009 7.8827zm-10.108-23.6474c0-5.5126-3.062-8.2689-9.186-8.2689h-33.666v15.9496h33.666c3.012 0 5.218-.521 6.601-1.563 1.729-1.1765 2.585-3.2101 2.585-6.1177zm1.942 23.6804c0-2.79-.856-4.975-2.535-6.5543-1.696-1.5799-3.934-2.3698-6.717-2.3698h-35.526V114.84h35.526c6.174 0 9.252-2.874 9.252-8.656z" fill="#2B2B2B"/>
  <path d="M396.105 122.403h-8.166v-13.681c0-2.034-1.004-3.681-2.996-4.907-1.728-1.042-3.655-1.563-5.795-1.563h-38.374v20.151h-8.165V66.7053h48.976c4.889 0 8.577 1.7815 11.096 5.3446 2.271 3.126 3.424 7.2941 3.424 12.4705 0 4.6051-.725 8.0504-2.157 10.3362-1.021 1.563-2.65 2.8571-4.889 3.8487 4.692 2.0507 7.046 5.3947 7.046 10.0507v13.647zm-8.166-37.933c0-3.647-.74-6.2521-2.189-7.8487-1.465-1.5798-3.918-2.3866-7.359-2.3866h-37.617v20.437h37.601c3.44 0 5.926-.8572 7.457-2.5546 1.416-1.5463 2.107-4.1009 2.107-7.6471z" fill="#2B2B2B"/>
  <path d="M474.73 122.403h-9.235l-6.404-12.387h-38.918l-6.404 12.387h-9.219l28.662-55.6977h12.709l28.809 55.6977zm-19.195-19.731l-14.866-29.3448-1.975.0168-14.899 29.328h31.74z" fill="#2B2B2B"/>
  <path d="M490.632 122.403h-8.166V66.7053h8.166v55.6977z" fill="#2B2B2B"/>
  <path d="M570.525 122.403h-12.281l-46.391-48.4369v48.4369h-8.166V66.6216h11.87l46.802 48.8744V66.6216h8.166v55.7814z" fill="#2B2B2B"/>
</svg>
