<?xml version="1.0" encoding="UTF-8" standalone="no"?>
<svg
   xmlns:dc="http://purl.org/dc/elements/1.1/"
   xmlns:cc="http://creativecommons.org/ns#"
   xmlns:rdf="http://www.w3.org/1999/02/22-rdf-syntax-ns#"
   xmlns:svg="http://www.w3.org/2000/svg"
   xmlns="http://www.w3.org/2000/svg"
   viewBox="0 0 186 24"
   height="24"
   width="186"
   xml:space="preserve"
   id="svg2"
   version="1.1"><metadata
     id="metadata8"><rdf:RDF><cc:Work
         rdf:about=""><dc:format>image/svg+xml</dc:format><dc:type
           rdf:resource="http://purl.org/dc/dcmitype/StillImage" /></cc:Work></rdf:RDF></metadata><defs
     id="defs6" /><g
     transform="scale(1.3333333)"
     id="g10"><g
       id="g12"><path
         id="path14"
         style="fill:#191816;fill-opacity:1;fill-rule:nonzero;stroke:none"
         d="m 56.133,9.902 c 0.387,-1.652 1.621,-2.371 3.039,-2.371 1.422,0 2.812,0.715 3,2.371 z m 7.945,5.227 0.199,-2.277 c -3.336,1.832 -7.457,2.089 -8.082,-1.118 h 8.426 V 10.719 C 64.52,7.262 61.887,5.555 59.172,5.555 c -2.774,0 -5.488,1.769 -5.488,5.367 0,5.445 5.832,6.562 10.394,4.207 z" /><path
         id="path16"
         style="fill:#191816;fill-opacity:1;fill-rule:nonzero;stroke:none"
         d="m 43.875,9.902 c 0.383,-1.652 1.617,-2.371 3.039,-2.371 1.418,0 2.813,0.715 3,2.371 z m 7.937,5.227 0.204,-2.277 c -3.336,1.832 -7.457,2.089 -8.082,-1.118 h 8.425 V 10.719 C 52.258,7.262 49.625,5.555 46.91,5.555 c -2.773,0 -5.488,1.769 -5.488,5.367 0,5.445 5.836,6.562 10.39,4.207 z" /><path
         id="path18"
         style="fill:#191816;fill-opacity:1;fill-rule:nonzero;stroke:none"
         d="M 68.754,1.328 H 66.426 V 16 h 2.328 v -4.512 c 0.891,0 1.582,0 2.289,0.653 0.992,1.015 1.723,2.316 2.391,3.859 h 2.671 c -0.644,-2.07 -2.691,-5.301 -4.859,-5.301 v -0.308 c 1.781,0 3.969,-2.805 4.555,-4.551 H 73.352 C 72.785,7.059 72.035,8.18 71,9.094 70.312,9.742 69.48,9.723 68.754,9.723 Z" /><path
         id="path20"
         style="fill:#191816;fill-opacity:1;fill-rule:nonzero;stroke:none"
         d="M 80.551,8.055 V 4.273 h 3.445 c 1.844,0 2.555,0.938 2.555,1.891 0,0.938 -0.711,1.891 -2.555,1.891 z m 0,5.812 v -3.781 h 4.011 c 1.844,0 2.555,0.937 2.555,1.891 0,0.933 -0.75,1.89 -2.594,1.89 z M 84.5,2.141 H 78.121 V 16 h 6.988 c 2.977,0 4.477,-1.688 4.477,-3.719 0,-1.789 -1.297,-3.066 -3.504,-3.211 V 8.746 C 88.191,8.359 88.98,7.039 88.98,5.66 88.98,3.785 87.52,2.141 84.5,2.141 Z" /><path
         id="path22"
         style="fill:#191816;fill-opacity:1;fill-rule:nonzero;stroke:none"
         d="M 91.379,5.84 V 16 h 2.328 V 9.172 c 0.871,-0.871 2.004,-1.176 3.852,-1.176 h 0.933 L 98.309,5.66 h -0.75 c -1.539,0 -2.997,0.668 -3.563,2.07 H 93.711 V 5.84 Z" /><path
         id="path24"
         style="fill:#191816;fill-opacity:1;fill-rule:nonzero;stroke:none"
         d="m 101.332,10.918 c 0,-2.234 1.262,-3.371 2.965,-3.371 1.375,0 2.336,0.426 3.187,1.301 v 4.144 c -0.851,0.875 -1.812,1.301 -3.187,1.301 -1.699,0 -2.965,-1.137 -2.965,-3.375 z m 6.156,-5.078 v 1.48 h -0.265 c -0.914,-1.195 -1.973,-1.804 -3.535,-1.804 -3.18,0 -4.77,2.582 -4.77,5.402 0,2.824 1.59,5.406 4.77,5.406 1.562,0 2.621,-0.609 3.535,-1.808 h 0.265 V 16 h 2.328 V 5.84 Z" /><path
         id="path26"
         style="fill:#191816;fill-opacity:1;fill-rule:nonzero;stroke:none"
         d="m 112.621,16 h 2.328 V 5.84 h -2.328 z m 1.176,-11.461 c 0.973,0 1.621,-0.648 1.621,-1.625 0,-0.973 -0.648,-1.625 -1.621,-1.625 -0.969,0 -1.621,0.652 -1.621,1.625 0,0.977 0.648,1.625 1.621,1.625 z" /><path
         id="path28"
         style="fill:#191816;fill-opacity:1;fill-rule:nonzero;stroke:none"
         d="m 120.086,5.84 h -2.328 V 16 h 2.328 V 8.848 c 0.852,-0.836 1.793,-1.301 2.926,-1.301 1.234,0 2.398,0.691 2.398,2.762 V 16 h 2.332 V 9.781 c 0,-2.621 -1.226,-4.265 -3.758,-4.265 -1.375,0 -2.761,0.586 -3.675,1.886 h -0.223 z" /><path
         id="path30"
         style="fill:#191816;fill-opacity:1;fill-rule:nonzero;stroke:none"
         d="m 129.695,8.789 c 0,1.805 1.684,2.52 2.981,2.805 l 2.976,0.629 c 0.973,0.203 1.418,0.488 1.418,0.972 0,0.735 -1.011,1.078 -2.492,1.078 -1.742,0 -3.746,-0.671 -4.863,-1.281 l 0.203,2.297 c 1.297,0.672 2.98,1.035 4.539,1.035 2.895,0 5.043,-0.953 5.043,-3.23 0,-1.848 -1.539,-2.539 -3.344,-2.926 l -2.715,-0.566 c -0.847,-0.184 -1.316,-0.469 -1.316,-0.957 0,-0.692 0.914,-1.055 2.371,-1.055 1.641,0 3.402,0.609 4.336,1.117 L 138.629,6.41 c -1.117,-0.566 -2.555,-0.894 -4.012,-0.894 -2.648,0 -4.922,0.933 -4.922,3.273 z" /><path
         id="path32"
         style="fill:#191816;fill-opacity:1;fill-rule:nonzero;stroke:none"
         d="m 32.941,8.344 v 2.23 h 4.321 v 2.496 c -1.168,0.676 -2.371,0.985 -3.516,0.985 -2.742,0 -5.234,-1.785 -5.234,-4.961 0,-3.18 2.496,-4.961 5.234,-4.961 1.758,0 3.629,0.711 5.324,2.144 L 38.82,3.441 C 37.18,2.363 35.375,1.855 33.469,1.855 c -3.809,0 -7.535,2.563 -7.535,7.235 0,4.676 3.726,7.234 7.535,7.234 1.906,0 3.89,-0.426 6.14,-2.09 v -5.89 z" /><path
         id="path34"
         style="fill:#191816;fill-opacity:1;fill-rule:nonzero;stroke:none"
         d="m 12.543,6.484 c 0.102,0 0.219,-0.019 0.32,-0.035 l 0.039,0.059 c -0.039,0.277 0.102,0.418 0.239,0.578 0.66,0.715 1.691,1.254 2.945,0.578 0.539,0.5 0.539,2.168 0,2.668 -1.254,-0.676 -2.285,-0.137 -2.945,0.578 -0.137,0.16 -0.278,0.301 -0.239,0.578 l -0.039,0.063 c -0.101,-0.024 -0.218,-0.039 -0.32,-0.039 -0.738,0 -1.313,0.593 -1.313,1.312 0,0.719 0.579,1.293 1.313,1.293 0.699,0 1.293,-0.578 1.293,-1.293 0,-0.219 -0.059,-0.418 -0.156,-0.597 l 0.058,-0.059 c 0.18,0.039 0.278,-0.059 0.457,-0.238 0.356,-0.36 0.758,-0.66 1.274,-0.321 0.719,0.481 0.34,1.375 -0.215,2.133 -0.816,1.117 -1.992,2.012 -2.969,2.352 -0.797,0.277 -1.555,0.195 -2.07,0.019 v 1.473 c 2.328,0.66 4.48,-0.719 6.113,-2.887 0.797,-1.054 1.512,-2.351 0.695,-3.644 l 0.059,-0.078 c 0.219,0.019 0.379,-0.122 0.5,-0.34 0.559,-0.957 0.559,-2.309 0,-3.266 -0.117,-0.199 -0.238,-0.359 -0.5,-0.34 L 17.023,6.953 C 17.84,5.656 17.125,4.344 16.328,3.309 14.855,1.348 13.043,0.273 11.41,0.273 9.438,0.273 7.945,1.828 7.945,3.758 v 1.453 c 0,1.016 0.399,1.531 1.078,2.269 l 0.579,0.618 c 0.179,0.199 0.296,0.34 0.578,0.34 l 0.058,0.058 c -0.058,0.141 -0.101,0.32 -0.101,0.481 0,0.714 0.597,1.312 1.293,1.312 0.738,0 1.316,-0.598 1.316,-1.312 0,-0.719 -0.578,-1.293 -1.316,-1.293 -0.137,0 -0.297,0.019 -0.418,0.078 L 10.953,7.703 c 0,-0.277 -0.141,-0.398 -0.32,-0.578 L 10.039,6.508 C 9.617,6.07 9.398,5.672 9.398,5.07 V 3.758 c 0,-0.754 0.262,-1.356 0.778,-1.711 0.539,-0.379 1.312,-0.422 2.113,-0.141 1.133,0.399 2.285,1.414 2.965,2.352 0.558,0.754 0.937,1.652 0.219,2.129 C 15.055,6.668 14.656,6.547 14.199,6.07 14.02,5.871 13.898,5.809 13.738,5.832 L 13.68,5.77 c 0.101,-0.18 0.16,-0.375 0.16,-0.594 0,-0.719 -0.598,-1.293 -1.293,-1.293 -0.738,0 -1.313,0.578 -1.313,1.293 0,0.715 0.575,1.308 1.309,1.308 z m -7.086,5.02 c -0.098,0 -0.219,0.019 -0.316,0.039 L 5.102,11.48 C 5.141,11.203 5,11.062 4.863,10.902 4.203,10.188 3.168,9.648 1.914,10.324 1.379,9.824 1.379,8.156 1.914,7.656 3.168,8.332 4.203,7.793 4.863,7.078 5,6.918 5.141,6.777 5.102,6.5 L 5.141,6.441 c 0.097,0.02 0.218,0.036 0.316,0.036 0.738,0 1.316,-0.594 1.316,-1.313 0,-0.719 -0.578,-1.293 -1.316,-1.293 -0.695,0 -1.293,0.578 -1.293,1.293 0,0.219 0.059,0.418 0.16,0.598 L 4.266,5.82 C 4.086,5.781 3.988,5.879 3.809,6.059 3.449,6.418 3.051,6.719 2.531,6.379 1.816,5.898 2.191,5.004 2.75,4.246 3.566,3.129 4.742,2.234 5.719,1.895 6.516,1.617 7.27,1.699 7.789,1.875 V 0.414 C 5.457,-0.242 3.305,1.129 1.672,3.301 0.875,4.355 0.16,5.652 0.977,6.945 L 0.918,7.023 c -0.219,-0.019 -0.379,0.118 -0.5,0.34 -0.559,0.957 -0.559,2.309 0,3.266 0.117,0.199 0.238,0.355 0.5,0.34 l 0.059,0.078 c -0.817,1.293 -0.098,2.609 0.695,3.641 1.476,1.953 3.289,3.027 4.922,3.027 1.968,0 3.461,-1.555 3.461,-3.485 v -1.453 c 0,-1.015 -0.399,-1.531 -1.075,-2.269 L 8.402,9.891 C 8.223,9.691 8.105,9.551 7.824,9.551 L 7.766,9.492 C 7.824,9.352 7.863,9.172 7.863,9.012 7.863,8.297 7.27,7.699 6.57,7.699 c -0.738,0 -1.312,0.598 -1.312,1.313 0,0.718 0.578,1.297 1.312,1.297 0.141,0 0.301,-0.024 0.422,-0.082 l 0.059,0.058 c 0,0.277 0.137,0.399 0.316,0.578 l 0.598,0.617 c 0.418,0.438 0.637,0.836 0.637,1.438 v 1.312 c 0,0.758 -0.258,1.356 -0.774,1.711 C 7.289,16.32 6.512,16.363 5.715,16.082 4.582,15.684 3.426,14.668 2.746,13.73 2.191,12.977 1.812,12.078 2.531,11.602 c 0.418,-0.278 0.813,-0.161 1.274,0.316 0.179,0.199 0.297,0.262 0.457,0.242 l 0.058,0.059 c -0.097,0.179 -0.156,0.375 -0.156,0.593 0,0.719 0.594,1.293 1.293,1.293 0.738,0 1.313,-0.578 1.313,-1.293 0.003,-0.71 -0.575,-1.308 -1.313,-1.308 z" /></g></g></svg>