<?xml version="1.0" encoding="UTF-8" standalone="no"?>
<svg
   xmlns:dc="http://purl.org/dc/elements/1.1/"
   xmlns:cc="http://creativecommons.org/ns#"
   xmlns:rdf="http://www.w3.org/1999/02/22-rdf-syntax-ns#"
   xmlns:svg="http://www.w3.org/2000/svg"
   xmlns="http://www.w3.org/2000/svg"
   viewBox="0 0 99 22"
   height="22"
   width="99"
   xml:space="preserve"
   id="svg2"
   version="1.1"><metadata
     id="metadata8"><rdf:RDF><cc:Work
         rdf:about=""><dc:format>image/svg+xml</dc:format><dc:type
           rdf:resource="http://purl.org/dc/dcmitype/StillImage" /></cc:Work></rdf:RDF></metadata><defs
     id="defs6" /><g
     transform="scale(1.3333333)"
     id="g10"><g
       id="g12"><path
         id="path14"
         style="fill:#000000;fill-opacity:1;fill-rule:evenodd;stroke:none"
         d="m 10.348,11.762 c 0,2.59 -2.067,4.468 -5.344,4.468 C 3.105,16.18 1.305,15.371 0,13.984 l 1.098,-1.211 c 1.023,0.977 2.23,1.926 3.886,1.926 1.836,0 3.817,-1.031 3.817,-2.879 C 8.801,10.285 7.578,9.281 5.016,8.492 2.09,7.598 0.605,6.387 0.605,4.105 0.605,1.852 2.516,0 5.234,0 7.266,0 8.539,0.867 9.777,1.973 L 8.699,3.168 C 7.613,2.207 6.578,1.555 5.312,1.555 c -1.574,0 -3.128,1.015 -3.128,2.476 0,1.324 0.761,2.168 3.445,2.989 2.461,0.757 4.719,1.933 4.719,4.742 z M 23.617,1.496 c 0,0.711 0.574,1.285 1.285,1.285 0.34,0 0.668,-0.136 0.91,-0.375 0.243,-0.242 0.376,-0.57 0.376,-0.91 0,-0.711 -0.575,-1.289 -1.286,-1.289 -0.711,0 -1.285,0.578 -1.285,1.289 z M 36.066,0.473 h -1.55 v 15.504 h 1.55 z m 3.618,14.988 c 0,0 0.957,0.777 4.136,0.777 h -0.004 c 3.141,0 5.692,-2.297 5.692,-5.433 0,-3.141 -2.547,-5.426 -5.688,-5.426 -0.89,-0.024 -1.773,0.156 -2.586,0.527 V 0.473 h -1.55 z m 11.632,-4.645 c 0,3.141 2.543,5.684 5.684,5.684 3.137,0 5.684,-2.543 5.684,-5.684 0,-3.136 -2.543,-5.683 -5.684,-5.683 -3.141,0 -5.684,2.547 -5.684,5.683 z m 20.77,5.168 h 2.023 l -4.472,-5.332 4.172,-5 H 71.797 L 68.625,9.449 65.441,5.652 h -2.023 l 4.203,5.008 -4.445,5.324 h 2.012 l 3.441,-4.121 z M 57.008,6.668 c -1.672,0 -3.184,1.008 -3.824,2.555 -0.641,1.547 -0.286,3.328 0.898,4.511 1.184,1.184 2.965,1.536 4.512,0.895 1.547,-0.641 2.554,-2.149 2.554,-3.824 C 61.145,8.52 59.293,6.668 57.008,6.668 Z M 43.82,6.934 C 42.895,6.945 41.992,7.238 41.234,7.77 v 6.402 c 0.805,0.39 1.696,0.566 2.586,0.516 2.282,0 4.133,-1.598 4.133,-3.879 0,-2.282 -1.851,-3.875 -4.137,-3.875 z M 29.348,0.473 h 1.55 v 15.504 h -1.55 z M 19.781,15.98 14.359,10.555 19.27,5.641 h 2.191 l -4.91,4.914 5.426,5.425 z M 12.805,0.473 v 15.504 h 1.547 V 0.473 Z M 24.184,15.98 H 25.73 V 5.641 h -1.546 z" /></g></g></svg>