<?xml version="1.0" encoding="UTF-8" standalone="no"?>
<svg
   xmlns:dc="http://purl.org/dc/elements/1.1/"
   xmlns:cc="http://creativecommons.org/ns#"
   xmlns:rdf="http://www.w3.org/1999/02/22-rdf-syntax-ns#"
   xmlns:svg="http://www.w3.org/2000/svg"
   xmlns="http://www.w3.org/2000/svg"
   viewBox="0 0 339 29"
   height="29"
   width="339"
   xml:space="preserve"
   id="svg2"
   version="1.1"><metadata
     id="metadata8"><rdf:RDF><cc:Work
         rdf:about=""><dc:format>image/svg+xml</dc:format><dc:type
           rdf:resource="http://purl.org/dc/dcmitype/StillImage" /></cc:Work></rdf:RDF></metadata><defs
     id="defs6" /><g
     transform="scale(1.3333333)"
     id="g10"><g
       id="g12"><path
         id="path14"
         style="fill:#181818;fill-opacity:1;fill-rule:evenodd;stroke:none"
         d="m 8.344,7.891 4.988,0.547 c 5.324,0.574 8.074,2.687 8.074,6.257 0,4.141 -3.808,6.469 -10.761,6.469 C 3.508,21.164 0,18.836 0,14.121 h 4.867 c 0,2.055 2.117,3.203 5.899,3.203 3.808,0 5.5,-0.695 5.5,-2.48 0,-1.328 -1.207,-1.903 -3.387,-2.145 L 8.102,12.184 C 3.113,11.641 0.605,9.613 0.605,6.137 0.605,2.418 4.625,0 10.34,0 16.66,0 20.41,2.418 20.41,6.41 H 15.66 C 15.449,4.656 13.727,3.75 10.43,3.75 c -3.293,0 -4.805,0.785 -4.805,2.238 0,1.27 0.965,1.723 2.719,1.903 z m 141.168,9.101 c -4.082,0 -6.469,-2.359 -6.469,-6.41 0,-4.051 2.387,-6.41 6.469,-6.41 3.176,0 5.05,1.238 5.715,3.687 h 5.199 C 159.914,3.176 155.469,0 149.512,0 c -7.106,0 -11.731,4.172 -11.731,10.582 0,6.441 4.594,10.582 11.731,10.582 6.199,0 10.523,-3.297 10.976,-8.344 h -5.203 c -0.301,2.629 -2.418,4.172 -5.773,4.172 z m -28.45,-4.504 3.719,-9.738 h 0.149 l 3.703,9.738 z M 120.91,0.516 113.23,20.652 h 4.715 l 1.676,-4.386 h 10.445 l 1.668,4.386 h 5.231 L 129.254,0.516 Z m -75.375,0 h -5.324 l -7.828,7.949 h -2.36 V 0.516 h -4.777 v 20.136 h 4.777 v -8.375 h 2.36 l 7.738,8.375 H 46.32 L 36.328,9.867 Z m 13.485,0 h 4.777 V 16.781 H 74.68 v 3.871 H 59.02 Z m 23.644,0 h -4.777 v 20.136 h 15.66 V 16.781 H 82.664 Z m 18.863,3.867 h 12.035 V 0.516 H 96.75 v 20.136 h 4.777 v -7.41 h 9.981 V 9.371 h -9.981 z M 53.879,20.652 H 49.102 V 0.516 h 4.777 z M 189.695,0.516 h 12.188 v 4.625 h -12.188 z m 0,4.625 v 10.882 h -5.05 V 5.141 Z m 12.188,0 h 5.051 v 10.882 h -5.051 z m 20.742,5.14 h -6.5 V 4.383 h 6.5 c 2.238,0 3.629,1.148 3.629,2.965 0,1.812 -1.391,2.933 -3.629,2.933 z m 8.586,-2.933 c 0,-4.203 -3.266,-6.832 -8.586,-6.832 h -11.309 v 20.136 h 4.809 v -6.504 h 4.715 l 5.414,6.504 h 5.832 l -6.164,-7.406 c 3.34,-0.805 5.289,-2.91 5.289,-5.898 z m 17.93,-6.832 -5.715,8.949 -5.715,-8.949 h -5.563 l 8.649,13.242 v 6.894 h 4.777 V 13.758 L 254.25,0.516 Z M 169.648,4.383 H 162.09 V 0.516 h 19.926 v 3.867 h -7.59 v 16.269 h -4.778 z m 32.235,16.269 h -12.188 v -4.629 h 12.188 z" /></g></g></svg>