<svg width="90" height="14" viewBox="0 0 90 14" fill="none" xmlns="http://www.w3.org/2000/svg">
<path d="M2.46823 13.0209C1.03184 13.8506 0 13.1592 0 11.9294C0 10.6202 0 6.69201 0 6.69201C0 6.69201 0 2.76379 0 1.45459C0 0.224783 1.0312 -0.466626 2.46823 0.363064C4.70537 1.65497 11.4161 5.53201 11.4161 5.53201C12.3084 6.04731 12.3084 7.33601 11.4161 7.85141C11.4161 7.85141 4.70537 11.729 2.46823 13.0209Z" fill="#00C1FF"/>
<path d="M9.85458 13.0205C8.41819 13.8501 7.38635 13.1587 7.38635 11.9289C7.38635 10.6197 7.38635 6.69152 7.38635 6.69152C7.38635 6.69152 7.38635 2.76331 7.38635 1.45411C7.38635 0.224295 8.41755 -0.467115 9.85458 0.362575C12.0424 1.62633 18.606 5.41822 18.606 5.41822C19.586 5.98412 19.586 7.39891 18.606 7.96491C18.606 7.96491 12.0424 11.7567 9.85458 13.0205Z" fill="#BCEC30"/>
<mask id="mask0_37_67" style="mask-type:alpha" maskUnits="userSpaceOnUse" x="7" y="0" width="13" height="14">
<path d="M9.85458 13.0205C8.41819 13.8501 7.38635 13.1587 7.38635 11.9289C7.38635 10.6197 7.38635 6.69152 7.38635 6.69152C7.38635 6.69152 7.38635 2.76331 7.38635 1.45411C7.38635 0.224295 8.41755 -0.467115 9.85458 0.362575C12.0424 1.62633 18.606 5.41822 18.606 5.41822C19.586 5.98412 19.586 7.39891 18.606 7.96491C18.606 7.96491 12.0424 11.7567 9.85458 13.0205Z" fill="#6FE4FF"/>
</mask>
<g mask="url(#mask0_37_67)">
<g filter="url(#filter0_f_37_67)">
<path d="M2.46835 13.0212C1.03196 13.8509 0.00012207 13.1595 0.00012207 11.9297C0.00012207 10.6205 0.00012207 6.69221 0.00012207 6.69221C0.00012207 6.69221 0.00012207 2.76403 0.00012207 1.45484C0.00012207 0.225028 1.03132 -0.466382 2.46835 0.363308C4.7055 1.65522 11.4163 5.53221 11.4163 5.53221C12.3086 6.04761 12.3086 7.33631 11.4163 7.85161C11.4163 7.85161 4.7055 11.7293 2.46835 13.0212Z" fill="#99D100"/>
</g>
</g>
<path d="M24.1428 9.02941L24.3931 8.45961C24.5637 8.07221 24.8708 7.96961 25.2575 8.25451C25.9968 8.80151 27.2138 9.20031 28.8403 9.20031C30.2279 9.20031 30.8193 8.84711 30.8193 8.42541C30.8193 7.94681 30.3302 7.82151 29.5227 7.71891L27.6801 7.47961C25.4622 7.18331 24.3476 6.38561 24.3476 4.99541C24.3476 3.50251 25.5646 2.31738 28.3853 2.31738C29.9549 2.31738 30.9672 2.55669 31.6269 2.80739C32.3548 3.09231 32.4572 3.33161 32.4572 3.92421V4.69911C32.4572 5.17771 32.2866 5.33721 31.8202 5.33721H31.297C30.8193 5.33721 30.6601 5.16631 30.6601 4.69911V4.44841C30.353 4.34581 29.5909 4.19771 28.7038 4.19771C27.1455 4.19771 26.3949 4.48251 26.3949 4.96121C26.3949 5.31441 26.8498 5.51961 27.6801 5.63351L29.4886 5.87281C31.6724 6.14631 32.8325 6.80731 32.8325 8.40271C32.8325 10.0208 31.297 11.0578 28.5559 11.0578C26.5427 11.0578 24.9276 10.4197 24.2793 9.82711C24.0518 9.59921 24.0177 9.31431 24.1428 9.02941Z" fill="black"/>
<path d="M44.1142 10.9206H43.1815C42.7266 10.9206 42.5787 10.8522 42.3512 10.5104L40.5996 7.92351C40.3494 7.57031 40.1561 7.47911 39.6329 7.47911H37.8813V10.2824C37.8813 10.7611 37.7107 10.9206 37.2443 10.9206H36.5733C36.0956 10.9206 35.9363 10.7497 35.9363 10.2824V1.87246H35.3108C34.8331 1.87246 34.6738 1.70153 34.6738 1.23431V0.664517C34.6738 0.185907 34.8444 0.0263672 35.3108 0.0263672H37.2557C37.7334 0.0263672 37.8927 0.197297 37.8927 0.664517V5.58741H39.4623C39.9855 5.58741 40.1674 5.50771 40.429 5.14301L41.8963 2.87528C42.1351 2.52201 42.283 2.45364 42.7379 2.45364H43.6706C44.1824 2.45364 44.2734 2.86388 43.9891 3.28551L42.3512 5.76981C42.1806 6.00911 41.9759 6.25981 41.7825 6.46491C41.9873 6.63581 42.2716 6.92071 42.3854 7.09171L44.4327 10.1115C44.717 10.5104 44.6146 10.9206 44.1142 10.9206Z" fill="black"/>
<path d="M47.4425 12.4702V11.9118C47.4425 11.4332 47.6131 11.2737 48.0794 11.2737H48.887C49.376 11.2737 49.6149 11.1711 49.7969 10.7837L49.8992 10.5671L46.0321 3.23971C45.7933 2.79532 45.9866 2.46484 46.4871 2.46484H47.3629C47.8178 2.46484 48.0225 2.54461 48.1932 2.87509L49.8083 6.20261C50.1836 6.96611 50.6044 7.84361 50.9343 8.60711C51.2755 7.86641 51.6622 7.01171 52.0262 6.27101L53.6754 2.87509C53.8233 2.55601 54.0507 2.46484 54.5057 2.46484H55.3815C55.8933 2.46484 56.0753 2.80671 55.8364 3.23971L51.4347 11.6155C50.9229 12.5842 50.3428 13.1198 49.0235 13.1198H48.0567C47.6017 13.1198 47.4425 12.9488 47.4425 12.4702Z" fill="black"/>
<path d="M67.7301 6.69331C67.7301 9.38271 65.7397 11.0578 63.0554 11.0578C61.8953 11.0578 61.008 10.7729 60.3825 10.4197V12.7216C60.3825 13.2002 60.2119 13.3598 59.7456 13.3598H59.0746C58.5969 13.3598 58.4375 13.1888 58.4375 12.7216V4.31161H57.812C57.3342 4.31161 57.175 4.14071 57.175 3.67351V3.10371C57.175 2.62506 57.3456 2.46553 57.812 2.46553H59.4499C59.9276 2.46553 60.0868 2.63646 60.0868 3.10371V3.14931C60.7238 2.72763 61.6906 2.31738 63.0554 2.31738C65.7397 2.32878 67.7301 4.00391 67.7301 6.69331ZM65.7055 6.69331C65.7055 5.12071 64.443 4.24321 62.8734 4.24321C61.7474 4.24321 60.8261 4.72191 60.3939 5.10931V8.28871C60.8375 8.67611 61.7474 9.15481 62.8734 9.15481C64.443 9.14341 65.7055 8.26591 65.7055 6.69331Z" fill="black"/>
<path d="M78.3273 6.03221C78.3273 6.51081 78.1567 6.67031 77.6903 6.67031H77.0193C76.5416 6.67031 76.3823 6.53361 76.3823 6.03221C76.3823 4.77871 75.9046 4.22031 74.7672 4.22031C73.6867 4.22031 72.7882 4.89261 72.2877 5.71311V10.2828C72.2877 10.7614 72.1171 10.9209 71.6508 10.9209H70.9797C70.502 10.9209 70.3428 10.75 70.3428 10.2828V4.31141H69.7172C69.2395 4.31141 69.0803 4.14051 69.0803 3.67331V3.10351C69.0803 2.6249 69.2509 2.46536 69.7172 2.46536H71.355C71.8328 2.46536 71.992 2.63629 71.992 3.10351V3.65051C72.5948 2.97816 73.5161 2.32861 75.0857 2.32861C77.3832 2.32861 78.3273 3.69611 78.3273 6.03221Z" fill="black"/>
<path d="M79.5344 6.69311C79.5344 4.18611 81.65 2.32861 84.4593 2.32861C87.2459 2.32861 89.3501 4.18611 89.3501 6.69311C89.3501 9.21161 87.2346 11.0691 84.4593 11.0691C81.65 11.0691 79.5344 9.21161 79.5344 6.69311ZM87.4166 6.69311C87.4166 5.23451 86.1313 4.17471 84.4593 4.17471C82.7532 4.17471 81.468 5.24591 81.468 6.69311C81.468 8.16321 82.7532 9.23441 84.4593 9.23441C86.1427 9.23441 87.4166 8.16321 87.4166 6.69311Z" fill="black"/>
<defs>
<filter id="filter0_f_37_67" x="-1.024" y="-1.02339" width="14.1337" height="15.4313" filterUnits="userSpaceOnUse" color-interpolation-filters="sRGB">
<feFlood flood-opacity="0" result="BackgroundImageFix"/>
<feBlend mode="normal" in="SourceGraphic" in2="BackgroundImageFix" result="shape"/>
<feGaussianBlur stdDeviation="0.512059" result="effect1_foregroundBlur_37_67"/>
</filter>
</defs>
</svg>
